<?xml version="1.0" encoding="UTF-8" standalone="no"?>
<!DOCTYPE svg PUBLIC "-//W3C//DTD SVG 20010904//EN"
        "http://www.w3.org/TR/2001/REC-SVG-20010904/DTD/svg10.dtd">

<svg xmlns="http://www.w3.org/2000/svg"
     width="11.1136in" height="5.40401in"
     viewBox="0 0 800 389">
    <path id="Unnamed" d="M 307.000,113.398 C 307.000,115.898 307.000,115.898 307.000,118.398" stroke-width="10" stroke="black"
          fill="none" stroke-linecap="round"></path>
    <path id="Unnamed" d="M 307.000,118.398 C 307.000,131.398 307.000,131.398 307.000,144.398" stroke-width="10" stroke="black"
          fill="none" stroke-linecap="round"></path>
    <path id="Unnamed" d="M 307.000,144.398 C 307.000,155.898 307.000,155.898 307.000,167.398" stroke-width="10" stroke="black"
          fill="none" stroke-linecap="round"></path>
    <path id="Unnamed" d="M 307.000,167.398 C 307.000,180.898 307.000,180.898 307.000,194.398" stroke-width="10" stroke="black"
          fill="none" stroke-linecap="round"></path>
    <path id="Unnamed" d="M 307.000,194.398 C 307.000,206.398 307.000,206.398 307.000,218.398" stroke-width="10" stroke="black"
          fill="none" stroke-linecap="round"></path>
    <path id="Unnamed" d="M 307.000,218.398 C 307.000,226.898 307.000,226.898 307.000,235.398" stroke-width="10" stroke="black"
          fill="none" stroke-linecap="round"></path>
    <path id="Unnamed" d="M 307.000,235.398 C 307.000,239.898 307.000,239.898 307.000,244.398" stroke-width="10" stroke="black"
          fill="none" stroke-linecap="round"></path>
    <path id="Unnamed" d="M 307.000,244.398 C 307.000,246.898 305.933,250.008 307.000,249.398" stroke-width="5" stroke="black"
          fill="none" stroke-linecap="round"></path>
    <path id="Unnamed" d="M 307.000,249.398 C 309.433,248.008 310.910,245.183 314.000,240.398" stroke-width="10" stroke="black"
          fill="none" stroke-linecap="round"></path>
    <path id="Unnamed" d="M 314.000,240.398 C 326.410,221.183 326.220,221.031 338.000,201.398" stroke-width="10" stroke="black"
          fill="none" stroke-linecap="round"></path>
    <path id="Unnamed" d="M 338.000,201.398 C 354.720,173.531 354.242,173.243 371.000,145.398" stroke-width="10" stroke="black"
          fill="none" stroke-linecap="round"></path>
    <path id="Unnamed" d="M 371.000,145.398 C 386.742,119.243 386.556,119.112 403.000,93.398" stroke-width="10" stroke="black"
          fill="none" stroke-linecap="round"></path>
    <path id="Unnamed" d="M 403.000,93.398 C 414.056,76.112 414.459,76.370 426.000,59.398" stroke-width="10" stroke="black"
          fill="none" stroke-linecap="round"></path>
    <path id="Unnamed" d="M 426.000,59.398 C 431.459,51.370 431.615,51.475 437.000,43.398" stroke-width="10" stroke="black"
          fill="none" stroke-linecap="round"></path>
    <path id="Unnamed" d="M 437.000,43.398 C 441.615,36.475 441.465,36.375 446.000,29.398" stroke-width="10" stroke="black"
          fill="none" stroke-linecap="round"></path>
    <path id="Unnamed" d="M 446.000,29.398 C 447.965,26.375 450.708,23.871 450.000,23.398" stroke-width="10" stroke="black"
          fill="none" stroke-linecap="round"></path>
    <path id="Unnamed" d="M 450.000,23.398 C 449.208,22.871 446.093,24.839 443.000,27.398" stroke-width="10" stroke="black"
          fill="none" stroke-linecap="round"></path>
    <path id="Unnamed" d="M 443.000,27.398 C 431.593,36.839 431.880,37.269 421.000,47.398" stroke-width="10" stroke="black"
          fill="none" stroke-linecap="round"></path>
    <path id="Unnamed" d="M 421.000,47.398 C 402.880,64.269 402.413,63.808 385.000,81.398" stroke-width="10" stroke="black"
          fill="none" stroke-linecap="round"></path>
    <path id="Unnamed" d="M 385.000,81.398 C 353.413,113.308 353.627,113.558 323.000,146.398" stroke-width="10" stroke="black"
          fill="none" stroke-linecap="round"></path>
    <path id="Unnamed" d="M 323.000,146.398 C 312.127,158.058 312.455,158.359 302.000,170.398" stroke-width="10" stroke="black"
          fill="none" stroke-linecap="round"></path>
    <path id="Unnamed" d="M 302.000,170.398 C 295.955,177.359 296.197,177.581 290.000,184.398" stroke-width="10" stroke="black"
          fill="none" stroke-linecap="round"></path>
    <path id="Unnamed" d="M 290.000,184.398 C 286.197,188.581 286.000,188.398 282.000,192.398" stroke-width="10" stroke="black"
          fill="none" stroke-linecap="round"></path>
    <path id="Unnamed" d="M 282.000,192.398 C 280.000,194.398 280.000,196.398 278.000,196.398" stroke-width="5" stroke="black"
          fill="none" stroke-linecap="round"></path>
    <path id="Unnamed" d="M 278.000,196.398 C 276.000,196.398 273.330,193.292 274.000,192.398" stroke-width="5" stroke="black"
          fill="none" stroke-linecap="round"></path>
    <path id="Unnamed" d="M 274.000,192.398 C 274.830,191.292 277.530,192.033 281.000,192.398" stroke-width="10" stroke="black"
          fill="none" stroke-linecap="round"></path>
    <path id="Unnamed" d="M 281.000,192.398 C 287.030,193.033 287.097,192.967 293.000,194.398" stroke-width="10" stroke="black"
          fill="none" stroke-linecap="round"></path>
    <path id="Unnamed" d="M 293.000,194.398 C 303.597,196.967 303.500,197.398 314.000,200.398" stroke-width="10" stroke="black"
          fill="none" stroke-linecap="round"></path>
    <path id="Unnamed" d="M 314.000,200.398 C 328.000,204.398 327.933,204.647 342.000,208.398" stroke-width="10" stroke="black"
          fill="none" stroke-linecap="round"></path>
    <path id="Unnamed" d="M 342.000,208.398 C 357.933,212.647 357.838,213.215 374.000,216.398" stroke-width="10" stroke="black"
          fill="none" stroke-linecap="round"></path>
    <path id="Unnamed" d="M 374.000,216.398 C 390.838,219.715 390.942,219.392 408.000,221.398" stroke-width="10" stroke="black"
          fill="none" stroke-linecap="round"></path>
    <path id="Unnamed" d="M 408.000,221.398 C 424.942,223.392 447.655,225.230 442.000,224.398" stroke-width="10" stroke="black"
          fill="none" stroke-linecap="round"></path>
</svg>